<svg xmlns="http://www.w3.org/2000/svg" width="150" height="48.59" viewBox="0 0 150 48.59">
  <g id="corpus" transform="translate(-546 -146.41)">
    <line id="Line_1" data-name="Line 1" x2="150" transform="translate(546 194)" fill="none" stroke="#eb9c85" stroke-width="2"/>
    <path id="Path_24" data-name="Path 24" d="M.91-9.36a9.53,9.53,0,0,1,.6-3.315,9.544,9.544,0,0,1,1.755-2.964,8.525,8.525,0,0,1,2.821-2.132,8.657,8.657,0,0,1,3.77-.793,8.011,8.011,0,0,1,4.316,1.131,7.159,7.159,0,0,1,2.7,2.9L14.586-13a4.918,4.918,0,0,0-1.313-1.768,4.7,4.7,0,0,0-1.716-.91,6.647,6.647,0,0,0-1.807-.26,5.316,5.316,0,0,0-2.548.585,5.655,5.655,0,0,0-1.833,1.547,6.908,6.908,0,0,0-1.118,2.158,7.918,7.918,0,0,0-.377,2.392,7.544,7.544,0,0,0,.442,2.561A7.107,7.107,0,0,0,5.551-4.511a5.833,5.833,0,0,0,1.885,1.5,5.273,5.273,0,0,0,2.392.546,5.978,5.978,0,0,0,1.846-.312,5.521,5.521,0,0,0,1.781-.975,4.475,4.475,0,0,0,1.287-1.755L17.16-4.134a5.792,5.792,0,0,1-1.781,2.34,8.679,8.679,0,0,1-2.7,1.456A9.367,9.367,0,0,1,9.724.156,7.749,7.749,0,0,1,6.162-.663,8.992,8.992,0,0,1,3.38-2.847,10.345,10.345,0,0,1,1.56-5.915,9.593,9.593,0,0,1,.91-9.36ZM27.3.13a8.19,8.19,0,0,1-3.614-.78A8.671,8.671,0,0,1,20.9-2.769,9.875,9.875,0,0,1,19.1-5.785,9.625,9.625,0,0,1,18.46-9.23a9.335,9.335,0,0,1,.676-3.523,9.9,9.9,0,0,1,1.872-2.99,8.936,8.936,0,0,1,2.821-2.08,8.149,8.149,0,0,1,3.523-.767,7.991,7.991,0,0,1,3.6.806,8.719,8.719,0,0,1,2.782,2.158,10.23,10.23,0,0,1,1.794,3.016A9.453,9.453,0,0,1,36.166-9.2,9.5,9.5,0,0,1,35.5-5.681a9.692,9.692,0,0,1-1.859,2.99A8.769,8.769,0,0,1,30.823-.624,8.267,8.267,0,0,1,27.3.13ZM21.424-9.23a7.773,7.773,0,0,0,.416,2.522,7.018,7.018,0,0,0,1.183,2.171,5.561,5.561,0,0,0,1.859,1.5,5.389,5.389,0,0,0,2.444.546,5.3,5.3,0,0,0,2.5-.572,5.45,5.45,0,0,0,1.833-1.547A7.265,7.265,0,0,0,32.786-6.8a7.877,7.877,0,0,0,.39-2.431,7.882,7.882,0,0,0-.4-2.509A6.7,6.7,0,0,0,31.59-13.9a5.737,5.737,0,0,0-1.859-1.495,5.25,5.25,0,0,0-2.4-.546,5.3,5.3,0,0,0-2.5.572,5.647,5.647,0,0,0-1.846,1.534,7.191,7.191,0,0,0-1.157,2.158A7.605,7.605,0,0,0,21.424-9.23ZM39.182,0V-18.46h8.034a5.044,5.044,0,0,1,2.288.52,6,6,0,0,1,1.807,1.378,6.515,6.515,0,0,1,1.2,1.924,5.8,5.8,0,0,1,.429,2.184,6.307,6.307,0,0,1-.442,2.34A5.5,5.5,0,0,1,51.233-8.19a4.9,4.9,0,0,1-1.911,1.17L53.664,0H50.388l-4-6.422h-4.29V0Zm2.912-9h5.1a2.32,2.32,0,0,0,1.43-.468,3.215,3.215,0,0,0,.988-1.261,4.1,4.1,0,0,0,.364-1.729,3.567,3.567,0,0,0-.416-1.729,3.56,3.56,0,0,0-1.079-1.235,2.451,2.451,0,0,0-1.443-.468h-4.94ZM56.368,0V-18.46h7.748a5.044,5.044,0,0,1,2.288.52,6.164,6.164,0,0,1,1.82,1.378,6.177,6.177,0,0,1,1.2,1.924,5.959,5.959,0,0,1,.416,2.184,6.507,6.507,0,0,1-.689,2.925A5.768,5.768,0,0,1,67.2-7.28a5.074,5.074,0,0,1-2.925.858H59.28V0ZM59.28-9h4.81a2.4,2.4,0,0,0,1.456-.455,3.028,3.028,0,0,0,.975-1.235,4.264,4.264,0,0,0,.351-1.768,3.754,3.754,0,0,0-.416-1.794,3.191,3.191,0,0,0-1.079-1.209,2.6,2.6,0,0,0-1.443-.429H59.28ZM80.262.13a8.345,8.345,0,0,1-3.731-.754,6.447,6.447,0,0,1-2.444-2.054,8.909,8.909,0,0,1-1.352-2.964A13.8,13.8,0,0,1,72.306-9.1v-9.36h2.912V-9.1a11.415,11.415,0,0,0,.26,2.457,6.85,6.85,0,0,0,.832,2.119,4.165,4.165,0,0,0,1.547,1.482,4.862,4.862,0,0,0,2.4.546,4.827,4.827,0,0,0,2.431-.559,4.132,4.132,0,0,0,1.534-1.508,7.238,7.238,0,0,0,.819-2.119,11.114,11.114,0,0,0,.26-2.418v-9.36h2.938V-9.1a13.6,13.6,0,0,1-.455,3.575,8.554,8.554,0,0,1-1.4,2.938A6.617,6.617,0,0,1,83.928-.6,8.378,8.378,0,0,1,80.262.13Zm22.776-14.248a3.994,3.994,0,0,0-.754-.611,7.325,7.325,0,0,0-1.17-.611,8.95,8.95,0,0,0-1.456-.468,7.071,7.071,0,0,0-1.612-.182,4.436,4.436,0,0,0-2.7.676,2.225,2.225,0,0,0-.884,1.872,1.908,1.908,0,0,0,.494,1.391,3.728,3.728,0,0,0,1.508.845q1.014.338,2.548.728a18.612,18.612,0,0,1,3.25,1.053A5.018,5.018,0,0,1,104.364-7.8a4.494,4.494,0,0,1,.728,2.678,5.239,5.239,0,0,1-.52,2.418,4.386,4.386,0,0,1-1.456,1.651,6.575,6.575,0,0,1-2.158.936,11.026,11.026,0,0,1-2.626.3A13.342,13.342,0,0,1,95.589-.1a12.5,12.5,0,0,1-2.6-.845,11.314,11.314,0,0,1-2.275-1.365l1.326-2.5a5.748,5.748,0,0,0,.975.741A10.68,10.68,0,0,0,94.5-3.3a11.819,11.819,0,0,0,1.846.611,8.488,8.488,0,0,0,2.041.247,4.831,4.831,0,0,0,2.665-.611,1.979,1.979,0,0,0,.923-1.755,1.949,1.949,0,0,0-.6-1.5,4.807,4.807,0,0,0-1.742-.949q-1.144-.39-2.73-.78A18.146,18.146,0,0,1,93.86-9.113a4.408,4.408,0,0,1-1.833-1.508,4.182,4.182,0,0,1-.611-2.353,5.232,5.232,0,0,1,.884-3.081,5.415,5.415,0,0,1,2.4-1.9,8.774,8.774,0,0,1,3.419-.637,9.945,9.945,0,0,1,2.366.273,10.672,10.672,0,0,1,2.093.741,10.882,10.882,0,0,1,1.781,1.066Z" transform="translate(568 165)" fill="#171717"/>
  </g>
</svg>
