<svg xmlns="http://www.w3.org/2000/svg" width="328" height="110" viewBox="0 0 328 110">
  <g id="search" transform="translate(-27 -672)">
    <rect id="Rectangle_4" data-name="Rectangle 4" width="328" height="110" rx="3" transform="translate(27 672)" fill="#171717"/>
    <path id="Path_27" data-name="Path 27" d="M21-22.806a6.451,6.451,0,0,0-1.218-.987,11.832,11.832,0,0,0-1.89-.987,14.458,14.458,0,0,0-2.352-.756,11.423,11.423,0,0,0-2.6-.294,7.165,7.165,0,0,0-4.368,1.092A3.594,3.594,0,0,0,7.14-21.714a3.083,3.083,0,0,0,.8,2.247A6.023,6.023,0,0,0,10.374-18.1q1.638.546,4.116,1.176a30.065,30.065,0,0,1,5.25,1.7,8.105,8.105,0,0,1,3.4,2.625,7.26,7.26,0,0,1,1.176,4.326,8.463,8.463,0,0,1-.84,3.906A7.085,7.085,0,0,1,21.126-1.7,10.621,10.621,0,0,1,17.64-.189,17.811,17.811,0,0,1,13.4.294,21.552,21.552,0,0,1,8.967-.168a20.194,20.194,0,0,1-4.2-1.365A18.276,18.276,0,0,1,1.092-3.738L3.234-7.77a9.284,9.284,0,0,0,1.575,1.2A17.252,17.252,0,0,0,7.2-5.334a19.093,19.093,0,0,0,2.982.987,13.711,13.711,0,0,0,3.3.4,7.8,7.8,0,0,0,4.305-.987A3.2,3.2,0,0,0,19.278-7.77a3.148,3.148,0,0,0-.966-2.415A7.766,7.766,0,0,0,15.5-11.718q-1.848-.63-4.41-1.26a29.313,29.313,0,0,1-4.914-1.743,7.121,7.121,0,0,1-2.961-2.436,6.755,6.755,0,0,1-.987-3.8,8.452,8.452,0,0,1,1.428-4.977A8.748,8.748,0,0,1,7.539-29a14.173,14.173,0,0,1,5.523-1.029,16.065,16.065,0,0,1,3.822.441,17.239,17.239,0,0,1,3.381,1.2,17.578,17.578,0,0,1,2.877,1.722ZM49.476-4.158V0H29.022V-29.82H49.1v4.158H33.726v8.484H47.04v3.906H33.726v9.114ZM62.958-29.82H67.41L79,0H74.046L70.9-8.106H59.388L56.28,0h-5Zm7.014,18.228L65.184-24.654,60.228-11.592ZM82.7,0V-29.82H95.676a8.147,8.147,0,0,1,3.7.84,9.691,9.691,0,0,1,2.919,2.226,10.525,10.525,0,0,1,1.932,3.108,9.371,9.371,0,0,1,.693,3.528,10.189,10.189,0,0,1-.714,3.78,8.886,8.886,0,0,1-2.037,3.108,7.911,7.911,0,0,1-3.087,1.89L106.092,0H100.8L94.332-10.374H87.4V0Zm4.7-14.532h8.232a3.748,3.748,0,0,0,2.31-.756,5.194,5.194,0,0,0,1.6-2.037,6.614,6.614,0,0,0,.588-2.793,5.762,5.762,0,0,0-.672-2.793,5.751,5.751,0,0,0-1.743-2,3.959,3.959,0,0,0-2.331-.756H87.4Zm21.084-.588a15.394,15.394,0,0,1,.966-5.355,15.418,15.418,0,0,1,2.835-4.788,13.772,13.772,0,0,1,4.557-3.444,13.985,13.985,0,0,1,6.09-1.281,12.941,12.941,0,0,1,6.972,1.827,11.565,11.565,0,0,1,4.368,4.683L130.578-21a7.945,7.945,0,0,0-2.121-2.856,7.6,7.6,0,0,0-2.772-1.47,10.737,10.737,0,0,0-2.919-.42,8.588,8.588,0,0,0-4.116.945,9.135,9.135,0,0,0-2.961,2.5,11.16,11.16,0,0,0-1.806,3.486,12.791,12.791,0,0,0-.609,3.864,12.186,12.186,0,0,0,.714,4.137,11.48,11.48,0,0,0,2,3.528,9.423,9.423,0,0,0,3.045,2.415,8.518,8.518,0,0,0,3.864.882,9.657,9.657,0,0,0,2.982-.5,8.918,8.918,0,0,0,2.877-1.575A7.229,7.229,0,0,0,130.83-8.9l3.906,2.226a9.357,9.357,0,0,1-2.877,3.78,14.02,14.02,0,0,1-4.368,2.352,15.131,15.131,0,0,1-4.767.8,12.518,12.518,0,0,1-5.754-1.323A14.526,14.526,0,0,1,112.476-4.6a16.711,16.711,0,0,1-2.94-4.956A15.5,15.5,0,0,1,108.486-15.12Zm55.1-14.7V0h-4.746V-13.146H143.808V0h-4.7V-29.82h4.7v12.474h15.036V-29.82Z" transform="translate(128 743)" fill="#fff"/>
    <path id="Path_18" data-name="Path 18" d="M38.977,36.656,27.756,25.434a15.649,15.649,0,1,0-2.325,2.325L36.653,38.98a1.644,1.644,0,1,0,2.325-2.325Zm-23.358-8.7A12.331,12.331,0,1,1,27.95,15.622,12.344,12.344,0,0,1,15.619,27.953Z" transform="translate(73.243 708.767)" fill="#fff"/>
  </g>
</svg>
