<svg xmlns="http://www.w3.org/2000/svg" width="153" height="78" viewBox="0 0 153 78">
  <g id="about-selected" transform="translate(-393 -117)">
    <path id="Rectangle_6" data-name="Rectangle 6" d="M15,0H138a15,15,0,0,1,15,15V78a0,0,0,0,1,0,0H0a0,0,0,0,1,0,0V15A15,15,0,0,1,15,0Z" transform="translate(393 117)" fill="#eb9c85"/>
    <path id="Path_23" data-name="Path 23" d="M7.41-18.46h2.756L17.342,0H14.274l-1.95-5.018H5.2L3.276,0H.182ZM11.752-7.176,8.788-15.262,5.72-7.176ZM34.138-4.758a4.246,4.246,0,0,1-.767,2.548A4.93,4.93,0,0,1,31.3-.572,7.024,7.024,0,0,1,28.444,0H19.63V-18.46h9.516a3.725,3.725,0,0,1,2.249.689A4.526,4.526,0,0,1,32.851-16a5.228,5.228,0,0,1,.507,2.249,4.954,4.954,0,0,1-.689,2.535,4.206,4.206,0,0,1-1.963,1.755,4.69,4.69,0,0,1,2.509,1.7A4.874,4.874,0,0,1,34.138-4.758ZM31.148-5.3a3.072,3.072,0,0,0-.325-1.417,2.865,2.865,0,0,0-.884-1.04,2.186,2.186,0,0,0-1.313-.4H22.542v5.642h5.9A2.6,2.6,0,0,0,29.835-2.9,2.7,2.7,0,0,0,30.8-3.913,2.835,2.835,0,0,0,31.148-5.3ZM22.542-15.938V-10.5H27.9a2.435,2.435,0,0,0,1.3-.351,2.558,2.558,0,0,0,.91-.962,2.825,2.825,0,0,0,.338-1.391,3.075,3.075,0,0,0-.312-1.417,2.469,2.469,0,0,0-.845-.962,2.194,2.194,0,0,0-1.235-.351ZM44.85.13a8.19,8.19,0,0,1-3.614-.78,8.671,8.671,0,0,1-2.782-2.119,9.875,9.875,0,0,1-1.807-3.016A9.625,9.625,0,0,1,36.01-9.23a9.335,9.335,0,0,1,.676-3.523,9.9,9.9,0,0,1,1.872-2.99,8.937,8.937,0,0,1,2.821-2.08A8.149,8.149,0,0,1,44.9-18.59a7.991,7.991,0,0,1,3.6.806,8.719,8.719,0,0,1,2.782,2.158,10.229,10.229,0,0,1,1.794,3.016A9.453,9.453,0,0,1,53.716-9.2a9.5,9.5,0,0,1-.663,3.523,9.692,9.692,0,0,1-1.859,2.99A8.769,8.769,0,0,1,48.373-.624,8.267,8.267,0,0,1,44.85.13ZM38.974-9.23a7.773,7.773,0,0,0,.416,2.522,7.018,7.018,0,0,0,1.183,2.171,5.561,5.561,0,0,0,1.859,1.5,5.389,5.389,0,0,0,2.444.546,5.3,5.3,0,0,0,2.5-.572A5.45,5.45,0,0,0,49.2-4.615,7.265,7.265,0,0,0,50.336-6.8a7.877,7.877,0,0,0,.39-2.431,7.882,7.882,0,0,0-.4-2.509A6.7,6.7,0,0,0,49.14-13.9a5.737,5.737,0,0,0-1.859-1.495,5.25,5.25,0,0,0-2.4-.546,5.3,5.3,0,0,0-2.5.572,5.647,5.647,0,0,0-1.846,1.534,7.191,7.191,0,0,0-1.157,2.158A7.605,7.605,0,0,0,38.974-9.23ZM64.428.13A8.345,8.345,0,0,1,60.7-.624a6.447,6.447,0,0,1-2.444-2.054A8.909,8.909,0,0,1,56.9-5.642,13.8,13.8,0,0,1,56.472-9.1v-9.36h2.912V-9.1a11.415,11.415,0,0,0,.26,2.457,6.85,6.85,0,0,0,.832,2.119,4.165,4.165,0,0,0,1.547,1.482,4.862,4.862,0,0,0,2.405.546,4.827,4.827,0,0,0,2.431-.559,4.132,4.132,0,0,0,1.534-1.508,7.238,7.238,0,0,0,.819-2.119,11.114,11.114,0,0,0,.26-2.418v-9.36H72.41V-9.1a13.6,13.6,0,0,1-.455,3.575,8.554,8.554,0,0,1-1.4,2.938A6.617,6.617,0,0,1,68.094-.6,8.378,8.378,0,0,1,64.428.13Zm25.4-16.016H83.694V0H80.756V-15.886H74.594V-18.46H89.83Z" transform="translate(425 165)" fill="#171717"/>
  </g>
</svg>
