<svg xmlns="http://www.w3.org/2000/svg" width="389" height="110" viewBox="0 0 389 110">
  <g id="download-corpus" transform="translate(-848 -672)">
    <rect id="Rectangle_3" data-name="Rectangle 3" width="389" height="110" rx="3" transform="translate(848 672)" fill="#4f52a7"/>
    <path id="Path_20" data-name="Path 20" d="M2.56,0V-22.72h8.064a11.508,11.508,0,0,1,6.144,1.52,9.585,9.585,0,0,1,3.7,4.1A13.068,13.068,0,0,1,21.7-11.392a12.644,12.644,0,0,1-1.36,6.016A9.665,9.665,0,0,1,16.48-1.408,11.722,11.722,0,0,1,10.624,0ZM18.048-11.392a9.717,9.717,0,0,0-.88-4.24,6.782,6.782,0,0,0-2.528-2.88,7.377,7.377,0,0,0-4.016-1.04H6.144V-3.168h4.48a7.188,7.188,0,0,0,4.048-1.088A6.976,6.976,0,0,0,17.184-7.2,9.819,9.819,0,0,0,18.048-11.392ZM34.912.16A10.08,10.08,0,0,1,30.464-.8,10.672,10.672,0,0,1,27.04-3.408,12.154,12.154,0,0,1,24.816-7.12a11.847,11.847,0,0,1-.784-4.24,11.489,11.489,0,0,1,.832-4.336,12.178,12.178,0,0,1,2.3-3.68,11,11,0,0,1,3.472-2.56,10.029,10.029,0,0,1,4.336-.944,9.836,9.836,0,0,1,4.432.992,10.731,10.731,0,0,1,3.424,2.656A12.59,12.59,0,0,1,45.04-15.52a11.634,11.634,0,0,1,.784,4.192,11.687,11.687,0,0,1-.816,4.336,11.929,11.929,0,0,1-2.288,3.68A10.792,10.792,0,0,1,39.248-.768,10.175,10.175,0,0,1,34.912.16ZM27.68-11.36a9.567,9.567,0,0,0,.512,3.1,8.638,8.638,0,0,0,1.456,2.672,6.844,6.844,0,0,0,2.288,1.84,6.632,6.632,0,0,0,3.008.672,6.522,6.522,0,0,0,3.072-.7,6.708,6.708,0,0,0,2.256-1.9,8.942,8.942,0,0,0,1.392-2.688,9.694,9.694,0,0,0,.48-2.992,9.7,9.7,0,0,0-.5-3.088A8.251,8.251,0,0,0,40.192-17.1a7.061,7.061,0,0,0-2.288-1.84,6.461,6.461,0,0,0-2.96-.672,6.522,6.522,0,0,0-3.072.7A6.95,6.95,0,0,0,29.6-17.024a8.851,8.851,0,0,0-1.424,2.656A9.36,9.36,0,0,0,27.68-11.36ZM56.736-22.624H60.1l2.816,7.712,2.848-7.712h3.36l-3.9,10.112L68.608-4.16,75.68-22.72h3.936L70.3,0H67.2L62.944-10.176,58.656,0H55.52L46.24-22.72h3.9l7.1,18.56,3.392-8.352Zm29.152,6.56V0H82.3V-22.72h2.944L98.112-6.3V-22.688h3.616V0H98.592ZM106.848,0V-22.72h3.584V-3.168h12.192V0Zm27.52.16A10.08,10.08,0,0,1,129.92-.8,10.672,10.672,0,0,1,126.5-3.408a12.154,12.154,0,0,1-2.224-3.712,11.847,11.847,0,0,1-.784-4.24,11.489,11.489,0,0,1,.832-4.336,12.178,12.178,0,0,1,2.3-3.68,11,11,0,0,1,3.472-2.56,10.029,10.029,0,0,1,4.336-.944,9.836,9.836,0,0,1,4.432.992,10.731,10.731,0,0,1,3.424,2.656A12.59,12.59,0,0,1,144.5-15.52a11.634,11.634,0,0,1,.784,4.192,11.686,11.686,0,0,1-.816,4.336,11.929,11.929,0,0,1-2.288,3.68A10.792,10.792,0,0,1,138.7-.768,10.175,10.175,0,0,1,134.368.16Zm-7.232-11.52a9.567,9.567,0,0,0,.512,3.1A8.638,8.638,0,0,0,129.1-5.584a6.844,6.844,0,0,0,2.288,1.84,6.632,6.632,0,0,0,3.008.672,6.522,6.522,0,0,0,3.072-.7,6.708,6.708,0,0,0,2.256-1.9,8.942,8.942,0,0,0,1.392-2.688,9.7,9.7,0,0,0,.48-2.992,9.7,9.7,0,0,0-.5-3.088,8.251,8.251,0,0,0-1.456-2.656,7.061,7.061,0,0,0-2.288-1.84,6.461,6.461,0,0,0-2.96-.672,6.522,6.522,0,0,0-3.072.7,6.95,6.95,0,0,0-2.272,1.888,8.851,8.851,0,0,0-1.424,2.656A9.36,9.36,0,0,0,127.136-11.36Zm27.552-11.36h3.392L166.912,0h-3.776l-2.4-6.176h-8.768L149.6,0h-3.808Zm5.344,13.888-3.648-9.952-3.776,9.952ZM169.728,0V-22.72h8.064a11.508,11.508,0,0,1,6.144,1.52,9.585,9.585,0,0,1,3.7,4.1,13.068,13.068,0,0,1,1.232,5.712,12.645,12.645,0,0,1-1.36,6.016,9.665,9.665,0,0,1-3.856,3.968A11.722,11.722,0,0,1,177.792,0Zm15.488-11.392a9.717,9.717,0,0,0-.88-4.24,6.782,6.782,0,0,0-2.528-2.88,7.377,7.377,0,0,0-4.016-1.04h-4.48V-3.168h4.48a7.188,7.188,0,0,0,4.048-1.088A6.976,6.976,0,0,0,184.352-7.2,9.819,9.819,0,0,0,185.216-11.392ZM199.1-11.52a11.729,11.729,0,0,1,.736-4.08A11.747,11.747,0,0,1,202-19.248a10.493,10.493,0,0,1,3.472-2.624,10.655,10.655,0,0,1,4.64-.976,9.86,9.86,0,0,1,5.312,1.392,8.811,8.811,0,0,1,3.328,3.568L215.936-16a6.054,6.054,0,0,0-1.616-2.176,5.787,5.787,0,0,0-2.112-1.12,8.181,8.181,0,0,0-2.224-.32,6.543,6.543,0,0,0-3.136.72,6.96,6.96,0,0,0-2.256,1.9,8.5,8.5,0,0,0-1.376,2.656,9.746,9.746,0,0,0-.464,2.944A9.285,9.285,0,0,0,203.3-8.24a8.747,8.747,0,0,0,1.52,2.688,7.179,7.179,0,0,0,2.32,1.84,6.49,6.49,0,0,0,2.944.672,7.357,7.357,0,0,0,2.272-.384,6.8,6.8,0,0,0,2.192-1.2,5.507,5.507,0,0,0,1.584-2.16l2.976,1.7a7.129,7.129,0,0,1-2.192,2.88,10.682,10.682,0,0,1-3.328,1.792,11.528,11.528,0,0,1-3.632.608,9.538,9.538,0,0,1-4.384-1.008A11.068,11.068,0,0,1,202.144-3.5,12.732,12.732,0,0,1,199.9-7.28,11.806,11.806,0,0,1,199.1-11.52ZM231.584.16a10.08,10.08,0,0,1-4.448-.96,10.672,10.672,0,0,1-3.424-2.608,12.154,12.154,0,0,1-2.224-3.712,11.847,11.847,0,0,1-.784-4.24,11.489,11.489,0,0,1,.832-4.336,12.178,12.178,0,0,1,2.3-3.68,11,11,0,0,1,3.472-2.56,10.029,10.029,0,0,1,4.336-.944,9.836,9.836,0,0,1,4.432.992,10.731,10.731,0,0,1,3.424,2.656,12.59,12.59,0,0,1,2.208,3.712,11.634,11.634,0,0,1,.784,4.192,11.686,11.686,0,0,1-.816,4.336,11.929,11.929,0,0,1-2.288,3.68A10.792,10.792,0,0,1,235.92-.768,10.175,10.175,0,0,1,231.584.16Zm-7.232-11.52a9.567,9.567,0,0,0,.512,3.1,8.638,8.638,0,0,0,1.456,2.672,6.844,6.844,0,0,0,2.288,1.84,6.632,6.632,0,0,0,3.008.672,6.522,6.522,0,0,0,3.072-.7,6.708,6.708,0,0,0,2.256-1.9,8.942,8.942,0,0,0,1.392-2.688,9.7,9.7,0,0,0,.48-2.992,9.7,9.7,0,0,0-.5-3.088,8.251,8.251,0,0,0-1.456-2.656,7.061,7.061,0,0,0-2.288-1.84,6.461,6.461,0,0,0-2.96-.672,6.522,6.522,0,0,0-3.072.7,6.95,6.95,0,0,0-2.272,1.888,8.851,8.851,0,0,0-1.424,2.656A9.36,9.36,0,0,0,224.352-11.36ZM246.208,0V-22.72H256.1a6.208,6.208,0,0,1,2.816.64,7.384,7.384,0,0,1,2.224,1.7,8.02,8.02,0,0,1,1.472,2.368,7.14,7.14,0,0,1,.528,2.688,7.763,7.763,0,0,1-.544,2.88,6.77,6.77,0,0,1-1.552,2.368,6.028,6.028,0,0,1-2.352,1.44L264.032,0H260l-4.928-7.9h-5.28V0Zm3.584-11.072h6.272a2.856,2.856,0,0,0,1.76-.576A3.957,3.957,0,0,0,259.04-13.2a5.039,5.039,0,0,0,.448-2.128,4.39,4.39,0,0,0-.512-2.128,4.382,4.382,0,0,0-1.328-1.52,3.016,3.016,0,0,0-1.776-.576h-6.08ZM267.36,0V-22.72H276.9a6.208,6.208,0,0,1,2.816.64,7.587,7.587,0,0,1,2.24,1.7,7.6,7.6,0,0,1,1.472,2.368,7.334,7.334,0,0,1,.512,2.688,8.008,8.008,0,0,1-.848,3.6,7.1,7.1,0,0,1-2.4,2.768,6.245,6.245,0,0,1-3.6,1.056h-6.144V0Zm3.584-11.072h5.92a2.96,2.96,0,0,0,1.792-.56,3.727,3.727,0,0,0,1.2-1.52,5.248,5.248,0,0,0,.432-2.176,4.62,4.62,0,0,0-.512-2.208,3.927,3.927,0,0,0-1.328-1.488,3.206,3.206,0,0,0-1.776-.528h-5.728ZM296.768.16a10.271,10.271,0,0,1-4.592-.928A7.935,7.935,0,0,1,289.168-3.3,10.964,10.964,0,0,1,287.5-6.944a16.98,16.98,0,0,1-.528-4.256V-22.72h3.584V-11.2a14.048,14.048,0,0,0,.32,3.024A8.43,8.43,0,0,0,291.9-5.568a5.126,5.126,0,0,0,1.9,1.824,5.984,5.984,0,0,0,2.96.672,5.941,5.941,0,0,0,2.992-.688,5.085,5.085,0,0,0,1.888-1.856,8.909,8.909,0,0,0,1.008-2.608,13.68,13.68,0,0,0,.32-2.976V-22.72h3.616V-11.2a16.742,16.742,0,0,1-.56,4.4A10.528,10.528,0,0,1,304.3-3.184,8.144,8.144,0,0,1,301.28-.736,10.312,10.312,0,0,1,296.768.16ZM324.8-17.376a4.916,4.916,0,0,0-.928-.752,9.016,9.016,0,0,0-1.44-.752,11.016,11.016,0,0,0-1.792-.576,8.7,8.7,0,0,0-1.984-.224,5.459,5.459,0,0,0-3.328.832,2.738,2.738,0,0,0-1.088,2.3,2.349,2.349,0,0,0,.608,1.712,4.589,4.589,0,0,0,1.856,1.04q1.248.416,3.136.9a22.908,22.908,0,0,1,4,1.3,6.176,6.176,0,0,1,2.592,2,5.531,5.531,0,0,1,.9,3.3,6.448,6.448,0,0,1-.64,2.976A5.4,5.4,0,0,1,324.9-1.3,8.092,8.092,0,0,1,322.24-.144a13.57,13.57,0,0,1-3.232.368,16.42,16.42,0,0,1-3.376-.352,15.386,15.386,0,0,1-3.2-1.04,13.925,13.925,0,0,1-2.8-1.68l1.632-3.072a7.074,7.074,0,0,0,1.2.912,13.145,13.145,0,0,0,1.824.944,14.547,14.547,0,0,0,2.272.752,10.447,10.447,0,0,0,2.512.3,5.945,5.945,0,0,0,3.28-.752,2.436,2.436,0,0,0,1.136-2.16,2.4,2.4,0,0,0-.736-1.84,5.917,5.917,0,0,0-2.144-1.168q-1.408-.48-3.36-.96a22.334,22.334,0,0,1-3.744-1.328,5.425,5.425,0,0,1-2.256-1.856,5.147,5.147,0,0,1-.752-2.9,6.44,6.44,0,0,1,1.088-3.792,6.665,6.665,0,0,1,2.96-2.336,10.8,10.8,0,0,1,4.208-.784,12.24,12.24,0,0,1,2.912.336,13.135,13.135,0,0,1,2.576.912,13.391,13.391,0,0,1,2.192,1.312Z" transform="translate(877 739)" fill="#fff"/>
  </g>
</svg>
